PathFileType	4	(X/Y/Z)	C:\Users\Basilio\Documents\Thesis Gigler\squatting_fais\c3dfiles\054\SLS_back_pre2\markers_experimental.trc
DataRate	CameraRate	NumFrames	NumMarkers	Units	OrigDataRate	OrigDataStartFrame	OrigNumFrames
200.000000	200.000000	4	61	mm	200.000000	0	1535
Frame#	Time	FHD			LBHD			RBHD			C7			T10			CLAV			LSHO			LUUPA			LMUPA			LDUPA			LLEP			LMEP			LRAD			LUL			LRFIN			RSHO			RUPA1			RMUPA			RDUPA			RLEP			RMEP			RRAD			RUL			RUFIN			LASI			RASI			USACR			LSACR			RSACR			LTHI1			LTHI2			LTHI3			LTHI4			LLFC			LMFC			LTIB1			LTIB2			LTIB3			LTIB4			LLMAL			LMMAL			LHEE			LMT1			LMT2			LMT5			RTHI			RTHI2			RTHI3			RTHI4			RLFC			RMFC			RTIB1			RTIB2			RTIB3			RTIB4			RLMAL			RMMAL			RHEE			RMT1			RMT2			RMT5			
		X1	Y1	Z1	X2	Y2	Z2	X3	Y3	Z3	X4	Y4	Z4	X5	Y5	Z5	X6	Y6	Z6	X7	Y7	Z7	X8	Y8	Z8	X9	Y9	Z9	X10	Y10	Z10	X11	Y11	Z11	X12	Y12	Z12	X13	Y13	Z13	X14	Y14	Z14	X15	Y15	Z15	X16	Y16	Z16	X17	Y17	Z17	X18	Y18	Z18	X19	Y19	Z19	X20	Y20	Z20	X21	Y21	Z21	X22	Y22	Z22	X23	Y23	Z23	X24	Y24	Z24	X25	Y25	Z25	X26	Y26	Z26	X27	Y27	Z27	X28	Y28	Z28	X29	Y29	Z29	X30	Y30	Z30	X31	Y31	Z31	X32	Y32	Z32	X33	Y33	Z33	X34	Y34	Z34	X35	Y35	Z35	X36	Y36	Z36	X37	Y37	Z37	X38	Y38	Z38	X39	Y39	Z39	X40	Y40	Z40	X41	Y41	Z41	X42	Y42	Z42	X43	Y43	Z43	X44	Y44	Z44	X45	Y45	Z45	X46	Y46	Z46	X47	Y47	Z47	X48	Y48	Z48	X49	Y49	Z49	X50	Y50	Z50	X51	Y51	Z51	X52	Y52	Z52	X53	Y53	Z53	X54	Y54	Z54	X55	Y55	Z55	X56	Y56	Z56	X57	Y57	Z57	X58	Y58	Z58	X59	Y59	Z59	X60	Y60	Z60	X61	Y61	Z61	

1	0	-108.7821044921875	1758.95654296875	-888.4710083007815	-283.9626464843751	1733.000732421875	-941.7128906250002	-285.0647888183594	1731.6484375	-800.7786254882815	-358.5887451171876	1570.611083984375	-866.1970825195315	-411.2793884277345	1237.468627929688	-873.7529907226565	-223.2174072265626	1495.205932617188	-874.2593994140627	-299.3353271484376	1547.364990234375	-1035.417724609375	-368.3156127929688	1335.796875	-1153.466918945313	-322.3661804199219	1313.942138671875	-1153.260864257813	-360.2853088378907	1267.680786132813	-1163.964111328125	-345.2326660156251	1213.272705078125	-1169.263061523438	-380.7451477050782	1190.527587890625	-1097.337890625	-215.2485351562501	981.8499145507815	-1133.5224609375	-257.3941650390626	959.2722778320315	-1195.848510742188	-172.5530090332032	903.8374633789065	-1159.341430664063	-287.0003967285157	1545.262084960938	-708.0473632812501	-341.6736755371094	1337.910766601563	-575.1789550781251	-299.4225158691407	1314.572265625	-572.8457641601564	-338.6113586425782	1270.0537109375	-558.8593139648439	-328.8900146484376	1224.274291992188	-550.2839965820314	-357.4045715332032	1196.903686523438	-624.3208618164064	-100.9062042236328	1083.295776367188	-650.3145751953126	-116.6401596069336	1061.796875	-575.5750732421876	-29.48626518249512	1042.267456054688	-646.7150268554689	-231.0211639404297	1061.423217773438	-1004.168151855469	-227.7481994628907	1058.696166992188	-752.6008911132814	-415.6058044433595	1148.888671875	-874.3452758789065	-422.5692138671876	1117.87548828125	-902.9632568359377	-420.0375366210939	1115.856323242188	-846.1903076171877	-321.4841613769532	828.8025512695315	-1104.80810546875	-289.5464477539063	749.5120239257814	-1104.825439453125	-242.6573028564454	753.2943725585939	-1095.479736328125	-318.5646667480469	696.4684448242189	-1091.363525390625	-317.3937683105469	542.2543334960939	-1078.119750976563	-287.0097045898438	528.5896606445314	-942.8767700195315	-277.8981628417969	375.1400451660157	-1039.073608398438	-327.9025268554688	334.3982849121094	-1100.194580078125	-290.4527893066407	329.5747070312501	-1075.002075195313	-297.4797668457032	249.7061309814454	-1046.807495117188	-358.6119384765626	115.1063003540039	-1097.377685546875	-327.0388488769532	132.58056640625	-1005.812133789063	-428.1142578125001	103.3043746948242	-1041.195434570313	-217.2821960449219	57.63656997680665	-1019.352416992188	-209.1490478515626	57.55293655395509	-1068.496337890625	-260.7107849121094	41.41147613525391	-1119.767944335938	-323.1267395019532	756.4063110351564	-678.7108764648439	-290.3769226074219	698.9079589843751	-684.2312622070314	-257.3040161132813	697.8331909179689	-691.5864257812501	-324.3130493164063	625.1643676757814	-702.9702148437501	-339.6349182128907	533.0023803710939	-707.0382690429689	-296.0618896484376	536.2882080078126	-840.2336425781252	-286.0390319824219	424.2645568847657	-717.9691772460939	-355.1738586425782	351.6975097656251	-680.7845458984376	-309.9650268554688	344.1693420410157	-691.8596191406251	-296.7004089355469	293.7553710937501	-717.1099853515626	-354.9084777832032	118.1388092041016	-693.0275268554689	-316.2907104492188	131.7930145263672	-780.3349609375002	-415.102996826172	94.64321136474611	-753.1151123046876	-195.1860351562501	53.4910125732422	-761.7997436523439	-194.6617736816407	53.93721389770509	-714.0961914062501	-245.0443115234376	39.01153182983399	-666.3054199218751	
2	0.005	-109.6981735229492	1759.48583984375	-889.343444824219	-285.0866394042969	1733.008911132813	-942.571472167969	-285.9440612792969	1731.708984375	-801.8150024414065	-359.1867675781251	1570.520141601563	-866.7781982421877	-411.1101074218751	1237.3173828125	-874.3035888671877	-223.4753417968751	1495.375854492188	-875.0969238281252	-299.8607788085938	1547.33544921875	-1036.21728515625	-368.4842529296876	1335.537353515625	-1154.217651367188	-322.6239929199219	1313.89697265625	-1154.10546875	-360.4982299804688	1267.430419921875	-1164.506713867188	-345.0999450683594	1213.127685546875	-1170.013427734375	-380.3418273925782	1190.249877929688	-1097.987670898438	-214.7259063720704	981.7663574218752	-1134.781860351563	-257.0798950195313	959.2694091796877	-1197.075317382813	-171.6827697753907	903.953796386719	-1160.872802734375	-287.2201232910157	1545.35595703125	-708.6879882812501	-341.6011047363282	1337.844482421875	-575.8434448242189	-299.2474060058594	1314.503295898438	-573.7339477539064	-338.3312377929688	1270.011108398438	-559.7773437500001	-328.4300842285157	1224.136474609375	-551.2637329101564	-357.0550231933594	1196.766845703125	-625.2677001953126	-100.2197494506836	1083.630981445313	-651.8967285156251	-116.0643081665039	1061.929077148438	-576.8182373046876	-29.02963066101075	1042.541259765625	-648.2008056640626	-230.5738525390626	1061.49267578125	-1004.757873535156	-227.1122741699219	1058.843872070313	-753.1937255859376	-415.207733154297	1148.757446289063	-874.9816894531252	-422.1316833496095	1117.655517578125	-903.5103149414065	-419.5740356445314	1115.634887695313	-846.729431152344	-321.2851562500001	828.796325683594	-1105.260864257813	-289.2656555175782	749.5139160156251	-1105.18408203125	-242.3706970214844	753.2576293945314	-1095.961791992188	-318.3851318359376	696.4741821289064	-1091.745239257813	-317.3757934570313	542.1926269531251	-1078.333129882813	-286.8287963867188	528.5901489257814	-943.2326660156252	-277.8840332031251	375.0924377441407	-1039.395385742188	-328.9110107421876	334.5378112792969	-1101.737060546875	-290.5429382324219	329.5346069335938	-1075.3076171875	-297.5299682617188	249.6807403564454	-1047.06884765625	-358.5635986328126	115.129020690918	-1097.370849609375	-327.0470275878907	132.5097351074219	-1005.803955078125	-428.100067138672	103.3155899047852	-1041.201171875	-216.9865875244141	57.57956695556642	-1019.323669433594	-209.0657501220704	57.5360565185547	-1068.5654296875	-260.7326049804688	41.39171600341798	-1119.8046875	-322.9895324707032	756.4523925781251	-679.1538696289064	-290.2052612304688	699.0018310546876	-684.7177734375001	-257.1664123535157	697.8303222656251	-691.9887695312501	-324.2723083496094	625.2661743164064	-703.3010253906251	-339.7660827636719	533.1383666992189	-707.3010864257814	-295.9827880859376	536.1845703125001	-840.4461059570315	-286.0999145507813	424.4134216308595	-718.1415405273439	-355.2141418457032	351.8095397949219	-681.0311889648439	-310.0940856933594	344.2465209960938	-692.0433959960939	-296.7615356445313	293.8042907714844	-717.1850585937501	-354.9241943359376	118.2138137817383	-693.0534667968751	-316.2199096679688	131.8705139160157	-780.3276367187502	-415.1061401367189	94.69437408447267	-753.1251220703126	-195.1860504150391	53.49102020263673	-761.7997436523439	-194.6650543212891	53.94688034057619	-714.0703125000001	-245.032455444336	39.03019332885743	-666.3040771484376	
3	0.01	-111.5121383666992	1760.166748046875	-890.2770996093752	-286.1919860839844	1733.022338867188	-943.3459472656252	-287.1505432128907	1731.72705078125	-802.4695434570315	-359.6961059570313	1570.396362304688	-867.6402587890627	-410.9172973632814	1237.057495117188	-874.9031982421877	-223.6772918701172	1495.555419921875	-875.8345947265627	-300.3604125976563	1547.275146484375	-1037.066772460938	-368.6120300292969	1335.209228515625	-1154.829711914063	-322.6387634277344	1313.75048828125	-1154.93310546875	-361.5964355468751	1267.429565429688	-1165.0927734375	-345.0207824707032	1212.960571289063	-1170.583374023438	-379.8529357910157	1189.931396484375	-1098.859008789063	-214.2496337890626	981.771423339844	-1135.933959960938	-256.7021484375001	959.1174926757815	-1198.125732421875	-171.0894165039063	904.0166015625002	-1162.2880859375	-287.4470214843751	1545.375	-709.4810791015626	-341.3568115234376	1337.66259765625	-576.6869506835939	-299.0699768066407	1314.328125	-574.4702148437501	-337.8239746093751	1269.777587890625	-560.7337036132814	-327.9448852539063	1223.885986328125	-552.2672119140626	-356.7394104003907	1196.662353515625	-626.1653442382814	-99.6664733886719	1083.889526367188	-653.1700439453126	-115.6480865478516	1062.081665039063	-578.1868286132814	-28.71609497070313	1042.833251953125	-649.7738037109376	-230.1099090576172	1061.578002929688	-1005.404602050781	-226.6716918945313	1059.054931640625	-753.7858886718751	-414.8001098632814	1148.666137695313	-875.6394653320315	-421.5881958007814	1117.415161132813	-904.0981445312502	-419.2462463378907	1115.441650390625	-847.4246215820315	-320.9450378417969	828.7734985351565	-1105.684692382813	-288.9585571289063	749.4912719726564	-1105.621704101563	-242.1659240722657	753.2073364257814	-1096.536987304688	-318.1886901855469	696.4919433593751	-1092.0615234375	-317.4335937500001	542.1716308593751	-1078.583862304688	-286.4625549316407	528.7981567382814	-943.5463867187502	-277.9169311523438	375.0427246093751	-1039.743896484375	-329.0719604492188	334.5034790039063	-1101.8369140625	-290.5929260253907	329.5029296875001	-1075.542236328125	-297.4887390136719	249.6524353027344	-1047.283813476563	-358.5541687011719	115.1319656372071	-1097.30712890625	-327.0347290039063	132.4739837646485	-1005.799438476563	-428.111297607422	103.291488647461	-1041.166748046875	-217.2498931884766	57.55305099487306	-1019.378723144531	-208.628158569336	57.42846679687501	-1068.353149414063	-260.7381591796876	41.36482238769532	-1119.815063476563	-322.8507080078126	756.5192260742189	-679.5986938476564	-290.0469970703126	699.1805419921876	-684.8979492187501	-257.0634155273438	697.6907958984376	-692.4803466796876	-324.2512512207032	625.3518066406251	-703.8441772460939	-339.8265991210938	533.2392578125001	-707.7156982421876	-295.9706726074219	536.1018066406251	-840.7207641601565	-286.1241760253907	424.482635498047	-718.3516235351564	-355.2801208496094	351.9383850097657	-681.2556152343751	-310.2119750976563	344.3533325195313	-692.1864013671876	-296.7641601562501	293.9310302734376	-717.3038940429689	-354.9449462890626	118.2952880859375	-693.0640869140626	-316.2074890136719	131.926513671875	-780.3306274414065	-415.0708312988282	94.73158264160158	-753.1434936523439	-195.1860351562501	53.4910125732422	-761.7997436523439	-194.6663360595704	53.91306686401369	-714.0704956054689	-245.0365600585938	39.0445785522461	-666.2955322265626	
4	0.015	-112.2459716796875	1760.4501953125	-891.1842041015627	-287.2189025878907	1733.069946289063	-944.1813964843752	-288.0110473632813	1731.714477539063	-803.4763183593752	-360.1264038085938	1570.20703125	-868.3599243164065	-410.6995544433595	1236.904907226563	-875.487243652344	-224.0598907470704	1495.689819335938	-876.6395263671877	-300.9074707031251	1547.1552734375	-1037.90966796875	-368.5872192382813	1334.896850585938	-1155.656860351563	-322.5516662597657	1313.5830078125	-1155.640258789063	-361.6219482421876	1267.160522460938	-1165.792236328125	-344.8544616699219	1212.752197265625	-1171.352905273438	-379.5945129394532	1189.59619140625	-1099.4443359375	-214.0021514892579	981.5988769531252	-1137.07177734375	-256.1942138671876	959.194030761719	-1199.212768554688	-171.2073669433594	903.7561645507815	-1163.500610351563	-287.7226257324219	1545.402709960938	-710.3211669921876	-341.0129089355469	1337.483276367188	-577.4014892578126	-298.8088378906251	1314.18505859375	-575.3417358398439	-337.5809631347657	1269.651611328125	-561.4486083984376	-327.6922302246094	1223.751831054688	-553.0809936523439	-356.2384948730469	1196.512817382813	-627.1008911132814	-99.79057312011722	1083.990966796875	-654.4052734375001	-114.8579177856446	1062.152099609375	-579.6441650390626	-28.15016174316407	1043.023071289063	-651.2521362304689	-229.4920349121094	1061.670288085938	-1006.052001953125	-226.3936614990235	1059.070556640625	-754.2569580078126	-414.5311584472657	1148.456176757813	-876.1458129882815	-421.1823730468751	1117.277465820313	-904.7624511718752	-418.681365966797	1115.302368164063	-848.1512451171877	-320.5792846679688	828.7664794921877	-1106.122924804688	-288.6934204101563	749.4558715820314	-1105.93017578125	-241.8982696533204	753.1040649414064	-1096.9794921875	-318.0476684570313	696.4227294921876	-1092.326782226563	-317.4965209960938	542.0842895507814	-1078.85888671875	-286.3142395019532	528.8526611328126	-943.781188964844	-278.0019836425782	375.0070495605469	-1040.013427734375	-329.2768554687501	334.4234313964844	-1101.957397460938	-290.6590881347657	329.4808044433594	-1075.736694335938	-297.6014099121094	249.5817871093751	-1047.461547851563	-358.5742492675782	115.1585006713867	-1097.234619140625	-326.9902038574219	132.4828186035157	-1005.737121582031	-428.0452880859376	103.2841110229492	-1041.15185546875	-217.0025787353516	57.46409606933595	-1019.317565917969	-208.9724884033204	57.39208221435548	-1068.605346679688	-260.5719299316407	41.2719841003418	-1119.872192382813	-322.5968017578126	756.6740722656251	-680.0921020507814	-289.9741516113282	699.1918945312501	-685.3244628906251	-256.9425964355469	697.7391967773439	-692.8821411132814	-324.2840881347657	625.4052124023439	-704.3090820312501	-339.8796081542969	533.3034667968751	-708.0982055664064	-295.8904418945313	535.9692993164064	-841.0178833007815	-286.1805419921876	424.532196044922	-718.5856933593751	-355.3950195312501	352.0404357910157	-681.4906005859376	-310.2767333984376	344.4335632324219	-692.3549804687501	-296.8206176757813	294.0206298828126	-717.3809814453126	-354.9189147949219	118.3619995117188	-693.0881958007814	-316.1756896972657	131.9402770996094	-780.3502197265627	-415.0895996093751	94.79445648193361	-753.1226806640626	-195.1879882812501	53.47806930541994	-761.7546386718751	-194.6670532226563	53.90495681762697	-714.1104125976564	-245.0306396484376	39.00987625122071	-666.2838745117189	
